<svg xmlns="http://www.w3.org/2000/svg" width="73.318" height="41" viewBox="0 0 73.318 41">
  <g id="Grupo_65542" data-name="Grupo 65542" transform="translate(5208.817 7017.56)">
    <path id="Caminho_94561" data-name="Caminho 94561" d="M93.4,0q-1.115.821-2.224,1.736a45.442,45.442,0,0,0-8.814,9.47c-2.837,4.254-3.81,8.038-2.183,10.046.053.066.107.129.165.187a.068.068,0,0,1-.03-.012.173.173,0,0,1-.037-.012l-.016-.007a.082.082,0,0,1-.021-.009,3.982,3.982,0,0,1-1.33-.877c-1.776-1.79-1.635-5.19.033-9.315A44.1,44.1,0,0,1,85.984,0Z" transform="translate(-5267.608 -7017.022)" fill="#fcb813"/>
    <path id="União_311" data-name="União 311" d="M68.407,38.383V36.709a1.8,1.8,0,0,1,3.593,0v1.674a1.806,1.806,0,0,1-3.593,0Zm.424-1.674v1.674a1.385,1.385,0,0,0,2.746,0V36.709a1.378,1.378,0,0,0-2.746,0ZM47.994,38.364V36.677a1.546,1.546,0,0,1,1.663-1.636,2.27,2.27,0,0,1,1.436.5.123.123,0,0,1,.059.1.129.129,0,0,1-.039.1l-.064.092a.142.142,0,0,1-.092.062.15.15,0,0,1-.115-.031,1.918,1.918,0,0,0-1.191-.419,1.131,1.131,0,0,0-1.234,1.228v1.687a1.137,1.137,0,0,0,1.247,1.228,1.933,1.933,0,0,0,1.276-.473.129.129,0,0,1,.105-.036.137.137,0,0,1,.1.063l.075.1a.142.142,0,0,1-.034.2A2.252,2.252,0,0,1,49.67,40,1.552,1.552,0,0,1,47.994,38.364Zm-23,.019V36.709a1.644,1.644,0,0,1,1.8-1.668,1.641,1.641,0,0,1,1.793,1.668v1.674A1.638,1.638,0,0,1,26.789,40,1.641,1.641,0,0,1,24.99,38.383Zm.423-1.674v1.674a1.228,1.228,0,0,0,1.376,1.2,1.225,1.225,0,0,0,1.37-1.2V36.709a1.235,1.235,0,0,0-1.37-1.26A1.239,1.239,0,0,0,25.413,36.709Zm-7.818,1.674V36.709a1.644,1.644,0,0,1,1.8-1.668,1.641,1.641,0,0,1,1.793,1.668v1.674A1.637,1.637,0,0,1,19.393,40,1.641,1.641,0,0,1,17.595,38.383Zm.423-1.674v1.674a1.228,1.228,0,0,0,1.375,1.2,1.225,1.225,0,0,0,1.371-1.2V36.709a1.236,1.236,0,0,0-1.371-1.26A1.238,1.238,0,0,0,18.018,36.709Zm-10.2,1.674V36.709a1.644,1.644,0,0,1,1.8-1.668,1.641,1.641,0,0,1,1.793,1.668v1.674A1.637,1.637,0,0,1,9.622,40,1.641,1.641,0,0,1,7.823,38.383Zm.423-1.674v1.674a1.228,1.228,0,0,0,1.376,1.2,1.224,1.224,0,0,0,1.369-1.2V36.709a1.235,1.235,0,0,0-1.369-1.26A1.238,1.238,0,0,0,8.245,36.709Zm58.182,3.226a.143.143,0,0,1-.149-.142V35.514H64.889a.138.138,0,0,1-.144-.142v-.123a.138.138,0,0,1,.144-.142h3.227a.143.143,0,0,1,.15.142v.123a.143.143,0,0,1-.15.142H66.707v4.279a.141.141,0,0,1-.143.142Zm-2.46,0a.143.143,0,0,1-.149-.142V35.248a.143.143,0,0,1,.149-.142H64.1a.141.141,0,0,1,.144.142v4.545a.141.141,0,0,1-.144.142Zm-4.273,0a.143.143,0,0,1-.15-.142V35.248a.143.143,0,0,1,.15-.142h1.539a1.581,1.581,0,0,1,1.7,1.714v1.422a1.572,1.572,0,0,1-1.7,1.694Zm.28-.414h1.252a1.152,1.152,0,0,0,1.273-1.28V36.819a1.173,1.173,0,0,0-1.273-1.306H59.975Zm-3.936.414a.142.142,0,0,1-.149-.142V35.249a.143.143,0,0,1,.149-.142h2.533a.138.138,0,0,1,.143.142v.123a.138.138,0,0,1-.143.142H56.319v1.757h2.117a.143.143,0,0,1,.15.142v.123a.143.143,0,0,1-.15.143H56.319v1.848h2.351a.138.138,0,0,1,.143.143v.122a.138.138,0,0,1-.143.142Zm-1.174,0a.157.157,0,0,1-.141-.075L53.261,37.97h-.955v1.823a.141.141,0,0,1-.143.142h-.136a.143.143,0,0,1-.15-.142V35.248a.143.143,0,0,1,.15-.142h1.422c1.017,0,1.65.55,1.65,1.436a1.363,1.363,0,0,1-1.333,1.4l1.383,1.77a.152.152,0,0,1,.009.157.135.135,0,0,1-.118.062Zm-2.559-2.374h1.143c.791,0,1.227-.362,1.227-1.02s-.436-1.028-1.227-1.028H52.306Zm-9.2,2.374a.143.143,0,0,1-.15-.142V35.248a.143.143,0,0,1,.15-.142h2.533a.139.139,0,0,1,.143.142v.123a.138.138,0,0,1-.143.142H43.385v1.757H45.5a.144.144,0,0,1,.15.143v.123a.144.144,0,0,1-.15.143H43.385v1.848h2.351a.138.138,0,0,1,.143.142v.123a.138.138,0,0,1-.143.142Zm-4.273,0a.143.143,0,0,1-.149-.142V35.248a.143.143,0,0,1,.149-.142h1.54a1.581,1.581,0,0,1,1.7,1.714v1.422a1.572,1.572,0,0,1-1.7,1.694Zm.28-.414h1.253a1.151,1.151,0,0,0,1.273-1.28V36.819a1.174,1.174,0,0,0-1.273-1.306H39.112Zm-2.584.414a.155.155,0,0,1-.132-.079l-.011-.021-.5-1.348H33.854l-.507,1.348a.143.143,0,0,1-.137.1h-.149a.137.137,0,0,1-.11-.052.143.143,0,0,1-.024-.123l1.712-4.554a.15.15,0,0,1,.137-.1h.182a.153.153,0,0,1,.145.1l1.707,4.541a.146.146,0,0,1-.02.133.136.136,0,0,1-.109.052ZM34,38.08h1.733l-.867-2.332Zm-1.546,1.856a.158.158,0,0,1-.141-.075L30.854,37.97H29.9v1.823a.142.142,0,0,1-.144.142H29.62a.143.143,0,0,1-.15-.142V35.248a.143.143,0,0,1,.15-.142h1.423c1.018,0,1.649.55,1.649,1.436a1.363,1.363,0,0,1-1.333,1.4l1.383,1.77a.149.149,0,0,1,.009.157.134.134,0,0,1-.117.062ZM29.9,37.562h1.143c.791,0,1.227-.362,1.227-1.02s-.435-1.028-1.227-1.028H29.9Zm-6.889,2.374a.144.144,0,0,1-.15-.142V35.514H21.471a.138.138,0,0,1-.144-.142v-.123a.139.139,0,0,1,.144-.142H24.7a.143.143,0,0,1,.149.142v.123a.143.143,0,0,1-.149.142H23.29v4.279a.141.141,0,0,1-.144.142Zm-6.59,0a.141.141,0,0,1-.143-.142l.006-3.858L14.7,38.725a.163.163,0,0,1-.142.078h-.1a.186.186,0,0,1-.126-.056l-.017-.023-1.584-2.79.006,3.858a.141.141,0,0,1-.143.142h-.137a.142.142,0,0,1-.149-.142V35.249a.143.143,0,0,1,.149-.142h.182a.165.165,0,0,1,.139.071l1.732,3.048,1.734-3.04a.137.137,0,0,1,.136-.079h.182a.143.143,0,0,1,.15.142v4.544a.143.143,0,0,1-.15.142Zm-9.46,0a.158.158,0,0,1-.141-.075L5.357,37.97H4.4v1.823a.142.142,0,0,1-.144.142H4.122a.143.143,0,0,1-.15-.142V35.248a.143.143,0,0,1,.15-.142H5.544c1.018,0,1.65.55,1.65,1.436a1.363,1.363,0,0,1-1.333,1.4l1.383,1.77a.149.149,0,0,1,.009.157.134.134,0,0,1-.117.062ZM4.4,37.562H5.544c.792,0,1.227-.362,1.227-1.02s-.435-1.028-1.227-1.028H4.4ZM.148,39.935a.138.138,0,0,1-.143-.142V35.249a.138.138,0,0,1,.143-.142H1.59a1.479,1.479,0,0,1,1.689,1.52c0,.962-.616,1.512-1.689,1.512H.428v1.655a.138.138,0,0,1-.143.142Zm.279-2.212H1.57c.853,0,1.285-.369,1.285-1.1s-.444-1.111-1.285-1.111H.428Zm56.664-2.888a.132.132,0,0,1-.122-.071.138.138,0,0,1,.018-.147l.69-.854a.154.154,0,0,1,.135-.074h.182a.132.132,0,0,1,.129.078.13.13,0,0,1-.035.144l-.746.857a.164.164,0,0,1-.134.065ZM0,31.331V30.91H72v.421Zm48-4.714V0H64.938V.018C65.094,0,65.252,0,65.413,0A6.557,6.557,0,0,1,72,6.557V12.1a6.555,6.555,0,0,1-6.587,6.554c-.16,0-.318,0-.474-.019v.019H55.066v7.963Zm7.062-13.5h7.97a1.912,1.912,0,0,0,.821-.186,1.887,1.887,0,0,0,1.081-1.708V7.436a1.9,1.9,0,0,0-1.077-1.708,1.925,1.925,0,0,0-.825-.185h-7.97Zm-20.009,13.5V6.8h7.062V26.617Zm-21.432,0-.676-1.324-3.4-6.639L6.713,13.113,2.84,5.543,0,0H7.927l2.837,5.543,3.876,7.571,2.272,4.439.563,1.1.581,1.136.056.109a4.013,4.013,0,0,0,.691.923,5.1,5.1,0,0,0,3.69,1.313l-1.618,3.159L20.2,26.617Zm9.956-15.533a40.948,40.948,0,0,1,5.393-5.541h3.064a43.519,43.519,0,0,0-7.045,5.541c-3.888,3.839-5.715,7.594-4.392,9.936C19.085,18.9,20.366,15.156,23.582,11.084Zm2.275,0H27.8c-5.248,3.385-8.206,7.183-7.2,9.935C19.385,18.545,21.555,14.784,25.856,11.084Zm9.2-5.541V0h7.062V5.543Z" transform="translate(-5208 -7017.06)" stroke="rgba(0,0,0,0)" stroke-miterlimit="10" stroke-width="1"/>
  </g>
</svg>
