<svg xmlns="http://www.w3.org/2000/svg" width="52.993" height="8.637" viewBox="0 0 52.993 8.637">
  <path id="União_312" data-name="União 312" d="M5104.014,7050.636v-4.909a1.811,1.811,0,0,0-3.621,0v4.909h-2.34v-4.909a1.811,1.811,0,0,0-3.621,0v4.909h-2.365V7042h2.067l.163,1.206a3.036,3.036,0,0,1,2.535-1.206,3.444,3.444,0,0,1,1.637.382,2.846,2.846,0,0,1,1.131,1.073,4.088,4.088,0,0,1,5.8-.462,3.716,3.716,0,0,1,.98,2.73v4.913Zm-36.034-.995a3.715,3.715,0,0,1-.98-2.729V7042h2.351v4.887a1.81,1.81,0,0,0,3.619,0V7042h2.342v4.887a1.766,1.766,0,0,0,.566,1.3l.03.026a1.814,1.814,0,0,0,3.023-1.322V7042h2.377s0,4.873,0,5.167c0,2.909-4.163,4.9-7.143,2.093a4.311,4.311,0,0,1-3.492,1.377A3.606,3.606,0,0,1,5067.979,7049.642Zm49.939.669a1.094,1.094,0,0,1-.338-.828,1.125,1.125,0,0,1,.338-.837,1.18,1.18,0,0,1,.86-.329,1.207,1.207,0,0,1,.867.329,1.111,1.111,0,0,1,.345.837,1.092,1.092,0,0,1-.338.828,1.208,1.208,0,0,1-.874.324A1.191,1.191,0,0,1,5117.919,7050.311Zm-3.649.324-.152-1.187a3.711,3.711,0,0,1-2.9,1.188,3.852,3.852,0,0,1-2.935-1.206,4.557,4.557,0,0,1,0-6.221,3.858,3.858,0,0,1,2.935-1.2,3.7,3.7,0,0,1,2.9,1.17l.152-1.175h1.951v8.635Zm-4.525-6.021a2.42,2.42,0,0,0,0,3.41,2.752,2.752,0,0,0,3.6,0,2.42,2.42,0,0,0,0-3.41,2.758,2.758,0,0,0-3.6,0Zm-20.548,6.021-.152-1.187a3.711,3.711,0,0,1-2.9,1.188,3.852,3.852,0,0,1-2.935-1.206,4.557,4.557,0,0,1,0-6.221,3.855,3.855,0,0,1,2.935-1.2,3.7,3.7,0,0,1,2.9,1.17l.152-1.175h1.951v8.635Zm-4.525-6.021a2.42,2.42,0,0,0,0,3.41,2.752,2.752,0,0,0,3.6,0,2.42,2.42,0,0,0,0-3.41,2.758,2.758,0,0,0-3.6,0Z" transform="translate(-5066.999 -7042)" fill="#8b8b8b"/>
</svg>
